<?xml version="1.0" standalone="no"?>
<!DOCTYPE svg PUBLIC "-//W3C//DTD SVG 20010904//EN"
 "http://www.w3.org/TR/2001/REC-SVG-20010904/DTD/svg10.dtd">
<svg version="1.0" xmlns="http://www.w3.org/2000/svg"
 width="956.000000pt" height="956.000000pt" viewBox="0 0 956.000000 956.000000"
 preserveAspectRatio="xMidYMid meet">
<metadata>
Created by potrace 1.14, written by Peter Selinger 2001-2017
</metadata>
<g transform="translate(0.000000,956.000000) scale(0.100000,-0.100000)"
fill="#000000" stroke="none">
<path d="M835 7386 c-5 -3 -28 -8 -50 -12 -38 -7 -36 -8 45 -21 103 -16 194
-57 248 -111 40 -40 78 -99 69 -108 -2 -2 -42 14 -88 35 -322 151 -601 127
-800 -70 -39 -39 -69 -72 -67 -75 3 -2 34 4 69 13 102 28 371 25 509 -5 115
-26 290 -79 290 -89 0 -3 -27 -3 -60 0 -155 14 -379 -30 -511 -99 -195 -103
-350 -307 -422 -556 -14 -48 -28 -109 -32 -135 -3 -27 -8 -64 -10 -83 -5 -32
-2 -30 26 25 84 160 239 300 475 427 83 45 310 148 326 148 2 0 -15 -39 -39
-87 -60 -127 -76 -213 -76 -413 1 -91 5 -187 10 -215 l9 -50 12 70 c45 254
190 480 409 637 l52 37 20 -44 c20 -46 62 -79 113 -90 15 -4 28 -12 28 -18 0
-7 7 -59 15 -117 41 -306 151 -566 466 -1100 166 -281 319 -570 319 -603 0 -9
-17 -52 -39 -95 -167 -333 -281 -802 -281 -1154 l0 -108 190 0 190 0 0 103 c0
108 18 268 45 402 24 120 67 267 75 258 27 -30 65 -465 56 -645 l-6 -128 145
0 145 0 0 73 c0 267 -64 637 -161 932 -22 66 -37 129 -35 141 8 31 153 268
217 354 252 340 560 598 932 780 246 120 439 181 732 232 112 19 165 22 390
22 285 0 394 -13 636 -74 518 -131 1013 -452 1348 -875 114 -143 281 -409 281
-446 0 -9 -18 -70 -39 -135 -97 -295 -161 -664 -161 -931 l0 -73 145 0 144 0
-6 133 c-6 139 7 353 33 525 24 161 26 162 63 22 53 -198 91 -459 91 -617 l0
-53 187 0 186 0 -6 145 c-18 383 -113 764 -276 1106 -22 48 -41 95 -41 106 0
33 152 320 319 603 334 566 439 826 476 1171 6 55 7 56 44 68 52 15 88 45 102
86 7 19 17 35 22 35 35 0 213 -163 283 -260 89 -123 156 -281 170 -404 6 -49
9 -55 18 -40 7 12 11 96 11 234 0 195 -2 222 -23 295 -13 44 -38 108 -56 142
-19 35 -32 63 -29 63 13 0 192 -79 277 -123 257 -131 430 -282 522 -454 l25
-48 -5 65 c-19 208 -131 455 -273 596 -159 160 -361 235 -632 236 -153 1 -152
3 34 56 254 72 511 82 686 27 34 -11 20 13 -46 78 -196 194 -477 216 -803 62
l-93 -44 28 50 c52 96 155 158 303 182 84 14 85 14 45 23 -22 5 -92 9 -155 8
-97 -1 -128 -5 -195 -28 -101 -34 -188 -82 -283 -154 -40 -31 -79 -61 -86 -66
-8 -5 -31 3 -63 23 -189 117 -447 167 -645 126 -152 -31 -325 -118 -433 -217
-31 -28 -54 -52 -53 -53 2 -2 37 3 78 10 140 24 350 38 480 31 147 -8 245 -26
355 -63 l80 -28 -112 -6 c-210 -13 -369 -64 -523 -169 -64 -44 -182 -164 -229
-233 -72 -106 -155 -309 -186 -457 -7 -33 0 -28 116 85 255 249 436 381 598
436 78 27 90 23 40 -13 -146 -106 -308 -326 -387 -528 -61 -153 -100 -417 -84
-570 l7 -75 71 135 c117 221 253 432 398 615 145 184 442 462 454 426 7 -22
62 -80 81 -86 16 -5 17 -12 9 -68 -12 -89 -53 -237 -95 -341 -77 -195 -154
-330 -372 -651 -229 -338 -297 -442 -344 -522 -23 -40 -45 -73 -48 -73 -3 0
-15 17 -27 39 -12 21 -59 88 -104 149 -452 604 -1100 1002 -1848 1136 -292 52
-706 50 -1005 -5 -596 -110 -1121 -385 -1545 -809 -134 -134 -265 -292 -356
-428 l-56 -84 -50 83 c-56 93 -97 156 -329 499 -173 255 -243 369 -308 498
-83 166 -150 367 -169 509 -8 56 -7 63 9 68 19 6 74 64 81 86 13 38 319 -253
464 -441 147 -190 320 -464 414 -657 19 -39 39 -72 44 -72 14 -1 -1 355 -19
434 -65 293 -224 556 -438 727 -54 42 -46 47 34 19 163 -56 362 -202 597 -439
67 -68 122 -119 122 -114 0 5 -13 55 -29 113 -64 225 -142 369 -276 505 -170
172 -366 256 -634 272 l-116 7 80 28 c110 37 208 55 355 63 133 7 350 -7 480
-32 41 -8 77 -14 79 -14 14 0 -73 77 -134 119 -233 161 -470 206 -735 141 -77
-19 -227 -84 -292 -126 -27 -18 -28 -18 -65 14 -175 149 -341 221 -523 228
-58 2 -109 2 -115 0z"/>
<path d="M4115 5558 c-2 -7 -8 -35 -12 -62 l-8 -48 -120 -64 -120 -63 -69
-249 -70 -249 -55 -25 c-109 -49 -103 -58 -65 103 19 78 43 160 53 184 23 51
80 116 127 144 31 19 34 19 35 3 0 -13 28 60 29 76 1 13 -131 -73 -169 -110
-64 -61 -81 -101 -135 -297 -25 -90 -49 -168 -54 -173 -18 -18 99 376 123 418
30 50 79 95 151 135 30 17 54 33 54 36 0 11 -118 -62 -153 -96 -71 -67 -77
-80 -182 -456 -14 -50 -15 -50 -89 -79 l-74 -30 -4 -45 c-3 -26 -4 -47 -3 -49
1 -1 22 7 46 17 l44 20 9 -240 c5 -132 7 -242 4 -244 -2 -2 -14 -2 -26 2 -22
5 -22 7 -22 208 l0 202 -67 -24 -68 -24 -65 -191 c-49 -143 -70 -194 -87 -205
-30 -20 -29 -25 6 -44 l28 -16 -33 -99 c-50 -148 -68 -266 -68 -439 -1 -153 9
-216 44 -280 16 -29 20 -30 135 -44 90 -11 120 -11 123 -3 2 7 8 9 13 6 14 -9
39 15 39 38 0 10 4 17 10 13 5 -3 16 8 25 25 8 16 13 30 10 30 -4 0 1 7 9 16
9 8 19 27 22 42 3 15 12 39 20 55 8 15 14 35 12 46 -2 10 2 24 8 32 7 8 14 32
17 54 12 82 20 104 48 131 l29 27 131 -23 c109 -20 137 -28 167 -53 38 -29 77
-33 127 -12 18 8 19 7 5 -9 -13 -17 -11 -21 23 -52 39 -36 67 -44 67 -19 0 8
9 15 20 15 15 0 20 -7 20 -25 0 -21 5 -25 29 -25 51 0 83 17 76 40 -8 26 23
40 37 16 8 -14 14 -13 53 14 53 36 60 47 45 65 -14 17 2 29 29 20 26 -8 96 72
80 91 -15 18 -1 36 21 29 25 -8 78 80 62 105 -12 20 -4 36 22 41 11 3 26 22
37 51 16 40 16 49 4 55 -19 11 -8 54 13 51 12 -2 19 12 29 56 12 53 12 61 -2
68 -23 13 -19 48 5 48 18 0 20 7 20 60 0 44 -4 60 -14 60 -23 0 -26 38 -3 44
17 4 19 10 14 43 -4 21 -7 49 -7 62 0 18 -4 22 -19 18 -26 -6 -36 30 -12 42
13 7 52 -13 169 -90 148 -96 152 -100 152 -134 0 -24 -5 -35 -15 -35 -9 0 -15
-9 -15 -25 0 -16 6 -25 15 -25 12 0 15 -13 15 -59 0 -50 -3 -59 -17 -57 -12 0
-19 -7 -21 -21 -2 -16 2 -23 12 -23 19 0 20 -12 5 -80 -8 -39 -15 -50 -30 -50
-13 0 -19 -7 -19 -24 0 -13 5 -26 11 -28 7 -2 4 -21 -8 -53 -14 -36 -24 -49
-36 -47 -21 4 -33 -24 -18 -41 14 -18 -43 -111 -64 -104 -19 8 -38 -16 -23
-31 17 -17 -59 -107 -78 -92 -19 16 -35 3 -28 -24 4 -17 -4 -28 -41 -55 -42
-30 -47 -32 -58 -17 -18 25 -45 11 -39 -20 4 -23 2 -24 -49 -24 -30 0 -78 7
-106 14 l-53 14 0 -31 c2 -135 49 -300 90 -311 8 -3 61 -7 118 -11 73 -5 102
-3 102 5 0 6 5 8 10 5 14 -9 40 13 40 33 0 8 7 20 17 27 9 7 17 21 18 31 0 10
9 31 19 46 10 16 16 34 13 42 -3 7 -1 18 5 24 11 11 28 77 33 127 1 17 6 43
10 58 4 15 8 42 9 59 l2 31 229 63 c127 35 239 64 251 64 11 0 33 -14 50 -31
53 -57 118 -72 180 -43 20 10 44 14 59 10 21 -5 25 -12 25 -46 0 -29 4 -40 15
-40 8 0 15 -9 15 -20 0 -11 -4 -20 -10 -20 -5 0 -10 -18 -10 -40 0 -33 3 -40
20 -40 22 0 29 -35 8 -42 -21 -7 8 -88 32 -88 13 0 20 -7 20 -20 0 -11 -5 -20
-10 -20 -6 0 -1 -18 10 -40 13 -25 25 -37 34 -34 19 7 30 -14 17 -30 -13 -16
38 -69 60 -61 8 2 20 1 28 -4 12 -8 12 -12 2 -24 -10 -12 -6 -19 22 -36 37
-23 57 -27 57 -11 0 6 9 10 21 10 15 0 19 -5 17 -22 -4 -28 25 -36 175 -44
115 -7 117 -7 117 14 0 15 6 22 20 22 13 0 20 -7 20 -20 0 -17 4 -19 28 -14
48 12 63 24 57 45 -7 22 22 39 35 19 10 -16 41 -5 70 25 19 20 21 27 10 40
-17 21 6 51 26 34 17 -14 38 1 59 41 12 23 12 29 -2 42 -19 20 -8 40 20 36 16
-2 24 6 35 35 14 35 13 39 -3 51 -24 17 -13 50 14 41 21 -6 31 17 31 73 0 22
-5 32 -15 32 -8 0 -15 9 -15 20 0 13 7 20 20 20 17 0 20 7 20 50 0 43 -3 50
-20 50 -13 0 -20 7 -20 20 0 14 7 20 21 20 18 0 20 4 14 33 -13 63 -16 68 -36
62 -24 -8 -27 22 -4 39 14 10 14 16 -1 58 -14 42 -19 47 -39 42 -28 -7 -42 21
-17 35 16 9 15 13 -5 48 -22 38 -25 40 -54 28 -21 -8 -34 22 -17 42 10 13 8
19 -15 39 -21 18 -32 21 -55 15 -22 -7 -186 30 -704 155 l-676 163 -154 98
-155 98 -5 85 c-3 47 -4 86 -3 88 1 2 57 -11 123 -28 67 -16 124 -30 128 -30
3 0 4 25 2 55 -4 51 -3 55 17 55 12 0 24 3 27 6 4 3 -7 35 -24 71 -28 59 -30
70 -24 135 3 38 11 78 17 89 7 14 6 19 -3 19 -7 0 6 10 30 22 24 13 39 24 33
26 -6 2 -116 -11 -245 -28 l-235 -31 -162 31 c-89 18 -168 34 -177 37 -12 5
-14 28 -10 145 2 76 9 143 14 148 24 24 537 -96 876 -204 98 -32 118 -42 118
-65 0 -10 7 -24 15 -31 13 -10 15 -9 15 8 0 58 -14 69 -131 107 -279 90 -759
206 -863 209 -49 1 -50 1 -57 -34 -4 -19 -9 -90 -12 -158 -3 -94 -1 -127 9
-137 8 -7 46 -19 86 -25 177 -30 204 -36 178 -42 -14 -4 -87 -14 -162 -24 -76
-10 -138 -21 -138 -25 0 -4 12 -17 26 -28 15 -12 21 -21 14 -21 -7 0 -21 11
-32 25 -11 14 -26 25 -34 25 -11 0 -14 15 -14 63 0 88 19 384 26 413 5 18 2
24 -10 24 -9 0 -19 -6 -21 -12z m-30 -383 c-7 -121 -13 -196 -14 -167 -1 38
-5 52 -15 52 -8 0 -18 -4 -21 -10 -10 -15 -25 -12 -25 6 0 9 10 23 21 33 18
14 22 31 27 111 6 104 -3 120 -60 120 -15 0 -28 3 -28 8 0 6 123 74 125 69 1
-1 -4 -101 -10 -222z m-220 27 c-4 -48 -10 -81 -12 -74 -3 8 -2 53 2 100 4 48
10 81 12 74 3 -8 2 -53 -2 -100z m1068 -69 c-7 -2 -19 -2 -25 0 -7 3 -2 5 12
5 14 0 19 -2 13 -5z m-60 -10 c-7 -2 -21 -2 -30 0 -10 3 -4 5 12 5 17 0 24 -2
18 -5z m-70 -10 c-7 -2 -19 -2 -25 0 -7 3 -2 5 12 5 14 0 19 -2 13 -5z m-843
-49 c0 -12 -7 -24 -15 -28 -24 -9 -19 -54 7 -58 19 -3 17 -7 -23 -48 -48 -49
-147 -96 -135 -64 3 9 18 62 31 118 14 55 27 106 29 112 3 8 19 8 55 0 43 -8
51 -14 51 -32z m773 39 c-7 -2 -19 -2 -25 0 -7 3 -2 5 12 5 14 0 19 -2 13 -5z
m-60 -10 c-7 -2 -21 -2 -30 0 -10 3 -4 5 12 5 17 0 24 -2 18 -5z m-70 -10 c-7
-2 -21 -2 -30 0 -10 3 -4 5 12 5 17 0 24 -2 18 -5z m-18 -16 c12 -20 72 -207
68 -211 -4 -3 -23 -6 -43 -6 -37 0 -38 1 -60 60 -12 33 -26 63 -31 66 -8 4
-141 -25 -259 -56 l-36 -10 -129 -321 c-77 -189 -137 -325 -147 -330 -15 -8
-15 -4 3 36 11 25 17 50 13 57 -4 6 0 16 8 22 8 6 18 21 22 33 6 18 4 22 -8
17 -10 -4 -16 -1 -16 9 0 8 11 17 23 21 27 6 46 56 49 127 1 41 2 42 5 9 4
-30 15 -8 80 165 42 110 77 201 78 202 1 2 80 26 175 55 147 45 170 54 145 60
-20 5 -15 6 15 2 24 -3 45 -6 45 -7z m-112 -4 c-7 -2 -21 -2 -30 0 -10 3 -4 5
12 5 17 0 24 -2 18 -5z m-70 -10 c-7 -2 -21 -2 -30 0 -10 3 -4 5 12 5 17 0 24
-2 18 -5z m-60 -10 c-7 -2 -21 -2 -30 0 -10 3 -4 5 12 5 17 0 24 -2 18 -5z
m-70 -10 c-7 -2 -21 -2 -30 0 -10 3 -4 5 12 5 17 0 24 -2 18 -5z m-187 -130
c-3 -8 -6 -38 -6 -68 0 -44 -3 -53 -20 -58 -11 -3 -20 -2 -20 3 0 4 -11 5 -25
2 -15 -2 -25 0 -25 7 0 6 11 16 25 21 23 9 26 14 25 38 -1 4 -12 6 -25 4 -35
-5 -31 17 5 29 16 6 32 19 35 29 4 12 12 17 21 13 8 -3 13 -12 10 -20z m-356
-131 c0 -5 -11 -14 -25 -20 -20 -9 -25 -9 -25 2 0 7 3 16 7 19 9 10 43 9 43
-1z m755 -2 c3 -5 4 -14 0 -20 -8 -13 -35 -1 -35 16 0 16 26 19 35 4z m128
-16 l47 -16 -1 -66 c0 -37 -3 -60 -6 -52 -3 8 -10 25 -14 38 -8 20 -11 21 -29
10 -29 -18 -45 7 -25 38 12 19 11 23 -8 43 -26 25 -24 26 36 5z m-556 -81 c-2
-16 -4 -3 -4 27 0 30 2 43 4 28 2 -16 2 -40 0 -55z m-530 20 c-3 -10 -5 -4 -5
12 0 17 2 24 5 18 2 -7 2 -21 0 -30z m201 0 c-11 -10 -23 -13 -35 -8 -16 6
-14 9 12 20 36 16 45 11 23 -12z m-191 -245 c-2 -24 -4 -7 -4 37 0 44 2 63 4
43 2 -21 2 -57 0 -80z m921 82 c112 -68 123 -361 22 -565 -64 -131 -175 -235
-249 -235 -53 0 -99 33 -124 88 -19 41 -22 64 -22 182 0 122 3 143 29 224 48
146 142 269 238 311 45 19 67 18 106 -5z m-896 -327 c6 -7 27 -14 47 -15 l36
-1 -33 -4 c-54 -7 -72 17 -70 91 l2 61 3 -60 c2 -32 9 -65 15 -72z m2198 -37
c278 -64 509 -116 513 -116 4 0 7 -20 7 -45 0 -44 -1 -45 -27 -38 -16 3 -271
61 -568 128 l-540 121 -3 46 -3 46 58 -13 c32 -7 285 -65 563 -129z m-1847 77
c-7 -2 -19 -2 -25 0 -7 3 -2 5 12 5 14 0 19 -2 13 -5z m-63 -13 c-14 -4 -34
-8 -45 -8 -16 0 -15 2 5 8 14 4 34 8 45 8 16 0 15 -2 -5 -8z m-77 -17 c-7 -2
-19 -2 -25 0 -7 3 -2 5 12 5 14 0 19 -2 13 -5z m-63 -13 c-14 -4 -34 -8 -45
-8 -16 0 -15 2 5 8 14 4 34 8 45 8 16 0 15 -2 -5 -8z m259 -24 c-2 -2 -119
-25 -259 -50 -140 -25 -266 -49 -280 -52 -14 -3 -21 -2 -17 2 4 4 119 29 255
55 226 43 312 56 301 45z m-29 -139 c0 -18 -406 -77 -470 -68 -38 5 -7 12 185
42 266 42 285 44 285 26z m-719 -121 c7 -26 9 -86 6 -166 -12 -263 -109 -472
-155 -335 -30 87 5 382 58 484 41 81 72 87 91 17z m1916 -27 c92 -22 290 -67
438 -99 263 -57 452 -100 528 -121 21 -6 37 -16 37 -24 0 -8 -4 -15 -10 -15
-5 0 -269 59 -585 130 -316 72 -578 130 -580 130 -3 0 -5 9 -5 20 0 11 2 20 4
20 3 0 80 -18 173 -41z m-1209 -4 c-1 -14 -5 -25 -9 -25 -3 0 -43 -5 -88 -11
-143 -19 -151 11 -9 41 110 24 108 24 106 -5z m2296 -44 c72 -161 47 -389 -56
-505 -144 -165 -340 -84 -404 165 -9 33 -13 63 -10 66 11 11 23 -9 34 -59 33
-146 147 -246 253 -223 l30 7 -40 26 c-29 19 -41 33 -41 50 0 19 4 23 18 17
40 -16 74 -24 88 -18 9 3 14 -2 14 -16 0 -50 44 -4 91 94 29 61 34 82 37 166
4 103 -11 183 -49 247 -23 39 -23 42 -5 42 7 0 25 -26 40 -59z m-2564 -31
c-23 -27 -46 -52 -51 -56 -5 -3 -9 17 -9 45 l0 50 38 4 c20 2 43 4 50 5 8 1
-5 -20 -28 -48z m2411 -16 c44 -6 72 -25 57 -39 -2 -2 -44 3 -92 12 -82 15
-87 17 -65 29 13 7 30 11 36 9 7 -2 36 -7 64 -11z m-135 -332 c-8 -8 -12 -1
-20 33 l-6 30 16 -28 c8 -16 13 -31 10 -35z"/>
<path d="M4341 4376 c-22 -23 -22 -26 -7 -47 l15 -22 9 24 c29 75 23 88 -17
45z"/>
<path d="M4487 4364 c-16 -34 -40 -124 -34 -131 3 -2 20 0 38 5 34 8 34 9 34
70 0 74 -16 98 -38 56z"/>
<path d="M4212 4142 c-18 -60 -14 -70 14 -38 25 28 29 66 8 73 -6 2 -16 -14
-22 -35z"/>
<path d="M4431 4041 c-8 -5 -15 -35 -18 -77 -4 -65 -3 -68 12 -49 20 24 65
110 65 125 0 12 -40 13 -59 1z"/>
<path d="M4246 3917 c-15 -19 -26 -41 -26 -49 0 -15 47 -65 54 -57 8 9 13 139
5 139 -4 0 -19 -15 -33 -33z"/>
<path d="M4028 5439 c-32 -16 -58 -32 -58 -34 0 -3 27 8 60 25 33 17 60 32 60
35 0 7 2 8 -62 -26z"/>
<path d="M3878 5359 c-32 -16 -58 -32 -58 -34 0 -3 27 8 60 25 33 17 60 32 60
35 0 7 2 8 -62 -26z"/>
<path d="M3791 5164 c0 -11 3 -14 6 -6 3 7 2 16 -1 19 -3 4 -6 -2 -5 -13z"/>
<path d="M5056 5149 c-85 -67 -77 -226 14 -303 17 -14 39 -26 48 -26 15 -1 16
-2 1 -13 -9 -7 -21 -22 -28 -35 -34 -63 63 -138 103 -80 23 33 20 56 -12 88
l-29 28 38 15 c103 41 117 207 24 303 -37 39 -46 44 -87 44 -31 0 -54 -7 -72
-21z m125 -26 c55 -33 86 -138 60 -206 -35 -91 -149 -88 -197 5 -19 37 -21
125 -4 159 29 57 86 74 141 42z m-11 -353 c23 -23 26 -50 8 -68 -17 -17 -35
-15 -58 8 -24 24 -25 43 -4 64 20 21 30 20 54 -4z"/>
<path d="M3771 5094 c0 -11 3 -14 6 -6 3 7 2 16 -1 19 -3 4 -6 -2 -5 -13z"/>
<path d="M5355 5058 c-2 -7 1 -96 8 -197 10 -150 15 -186 28 -194 9 -6 23 -8
30 -5 13 5 13 28 2 159 -6 85 -12 168 -12 186 -1 45 -45 84 -56 51z"/>
<path d="M5454 4923 c14 -248 17 -273 38 -284 37 -20 40 0 27 182 -14 196 -19
219 -50 219 -21 0 -22 -2 -15 -117z"/>
<path d="M5547 5013 c-10 -16 21 -374 33 -388 14 -16 50 -20 50 -6 0 62 -34
379 -42 389 -12 13 -34 16 -41 5z"/>
<path d="M3741 4984 c0 -11 3 -14 6 -6 3 7 2 16 -1 19 -3 4 -6 -2 -5 -13z"/>
<path d="M5643 4933 c4 -32 9 -112 13 -178 8 -144 14 -165 50 -165 25 0 26 1
20 48 -3 26 -11 110 -17 187 -7 77 -16 146 -22 153 -5 6 -18 12 -30 12 -18 0
-19 -5 -14 -57z"/>
<path d="M5745 4960 c-8 -14 14 -350 25 -377 7 -16 18 -23 36 -23 23 0 25 3
20 28 -3 15 -10 99 -17 187 -9 114 -16 165 -27 178 -17 19 -28 22 -37 7z"/>
<path d="M5847 4933 c-9 -16 22 -375 34 -389 16 -19 49 -18 49 2 0 8 -7 95
-16 192 -12 138 -19 180 -32 190 -18 14 -29 15 -35 5z"/>
<path d="M3721 4914 c0 -11 3 -14 6 -6 3 7 2 16 -1 19 -3 4 -6 -2 -5 -13z"/>
<path d="M6064 4881 c-91 -38 -104 -192 -22 -268 62 -58 134 -46 168 29 26 57
25 104 -2 158 -35 66 -95 101 -144 81z m82 -40 c41 -25 69 -95 59 -147 -7 -40
-53 -94 -80 -94 -54 0 -114 75 -115 143 0 59 42 114 90 116 8 1 29 -8 46 -18z"/>
<path d="M3701 4844 c0 -11 3 -14 6 -6 3 7 2 16 -1 19 -3 4 -6 -2 -5 -13z"/>
<path d="M6261 4633 c4 -54 7 -109 8 -123 1 -22 13 -30 111 -68 105 -42 111
-43 149 -30 l39 13 -43 91 c-42 90 -44 92 -130 153 -53 36 -99 61 -114 61
l-26 0 6 -97z"/>
<path d="M6077 4542 c-31 -34 -20 -85 22 -107 40 -20 75 -1 79 44 6 62 -63
105 -101 63z m68 -18 c9 -9 15 -28 13 -43 -6 -48 -78 -36 -78 13 0 42 36 59
65 30z"/>
</g>
</svg>
