<?xml version="1.0" encoding="utf-8"?>
<!-- Generator: Adobe Illustrator 16.0.0, SVG Export Plug-In . SVG Version: 6.00 Build 0)  -->
<!DOCTYPE svg PUBLIC "-//W3C//DTD SVG 1.1//EN" "http://www.w3.org/Graphics/SVG/1.1/DTD/svg11.dtd">
<svg version="1.1" id="Layer_1" xmlns="http://www.w3.org/2000/svg" xmlns:xlink="http://www.w3.org/1999/xlink" x="0px" y="0px"
	 width="3000px" height="3000px" viewBox="0 0 3000 3000" enable-background="new 0 0 3000 3000" xml:space="preserve">
<path fill="#FFFFFF" d="M1500.586,826.172c-372.656,0-673.242,300.586-673.242,673.242s300.586,673.242,673.242,673.242
	s673.242-300.586,673.242-673.242S1873.242,826.172,1500.586,826.172z M1500.586,1937.109
	c-240.82,0-437.695-196.289-437.695-437.695s196.289-437.695,437.695-437.695s437.695,196.289,437.695,437.695
	S1741.406,1937.109,1500.586,1937.109z M2358.398,798.633c0,87.305-70.313,157.031-157.031,157.031
	c-87.305,0-157.031-70.313-157.031-157.031s70.313-157.031,157.031-157.031S2358.398,711.914,2358.398,798.633z M2804.297,958.008
	c-9.961-210.352-58.008-396.68-212.109-550.195c-153.516-153.516-339.844-201.563-550.195-212.109
	c-216.797-12.305-866.602-12.305-1083.398,0c-209.766,9.961-396.094,58.008-550.195,211.523S206.836,747.07,196.289,957.422
	c-12.305,216.797-12.305,866.602,0,1083.398c9.961,210.352,58.008,396.68,212.109,550.195s339.844,201.563,550.195,212.109
	c216.797,12.305,866.602,12.305,1083.398,0c210.352-9.961,396.68-58.008,550.195-212.109
	c153.516-153.516,201.563-339.844,212.109-550.195C2816.602,1824.023,2816.602,1174.805,2804.297,958.008L2804.297,958.008z
	 M2524.219,2273.438c-45.703,114.844-134.18,203.32-249.609,249.609c-172.852,68.555-583.008,52.734-774.023,52.734
	s-601.758,15.234-774.023-52.734c-114.844-45.703-203.32-134.18-249.609-249.609c-68.555-172.852-52.734-583.008-52.734-774.023
	s-15.234-601.758,52.734-774.023c45.703-114.844,134.18-203.32,249.609-249.609c172.852-68.555,583.008-52.734,774.023-52.734
	s601.758-15.234,774.023,52.734c114.844,45.703,203.32,134.18,249.609,249.609c68.555,172.852,52.734,583.008,52.734,774.023
	S2592.773,2101.172,2524.219,2273.438z"/>
</svg>
